<svg width="64" height="64" viewBox="0 0 64 64" fill="none" xmlns="http://www.w3.org/2000/svg">
<g clip-path="url(#clip0_834_1969)">
<circle cx="32" cy="32" r="32" fill="#DBE4FF"/>
<path d="M30.7721 2.438C37.2478 3.2037 35.1177 21.1549 35.2881 24.3028C48.1031 24.9153 55.1127 44.3526 57.0156 53.9946L36.1401 61.9919L32.3058 48.1243C28.7555 51.0737 19.9508 54.6753 13.1343 45.4869C6.31785 36.2986 14.9521 29.2372 20.1213 26.8551C16.7699 20.6161 11.5496 7.37247 17.4799 4.3097C22.5015 1.71625 25.9633 12.1568 27.596 20.2383C26.4937 13.1103 25.5084 1.81561 30.7721 2.438Z" fill="#BAC8FF"/>
<path d="M56.8739 54.3622L34.839 63.3837L30.4214 48.7067C26.7123 51.9336 17.4241 55.982 9.94409 46.3606C2.46405 36.7392 11.4872 29.01 16.9337 26.3481C13.2145 19.7842 7.33612 5.80513 13.5767 2.39994C19.8173 -1.00524 24.1804 15.0027 25.5819 23.4323C24.3638 17.7485 20.7712 -0.573588 27.6849 0.0855549C31.8228 0.480052 32.827 7.5053 33.0215 13.8008" stroke="#212529" stroke-width="2"/>
<path d="M13.8011 40.0089C15.6272 39.6725 19.7001 38.3376 21.3827 35.6891" stroke="#212529" stroke-width="2"/>
<path d="M26.1052 33.7401C27.9617 33.7048 32.1973 33.0489 34.2877 30.7087" stroke="#212529" stroke-width="2"/>
<path d="M37.3425 24.1212C38.1115 23.7882 38.8045 23.2991 39.3761 22.6854C39.6524 23.4772 40.09 24.2039 40.66 24.8182C39.891 25.1512 39.198 25.6403 38.6264 26.254C38.3501 25.4622 37.9125 24.7355 37.3425 24.1212Z" stroke="#212529" stroke-width="2"/>
<path d="M34.7256 18.3123C34.8331 18.0772 34.9192 17.8328 34.9828 17.5823C35.2113 17.703 35.4503 17.803 35.6968 17.8807C35.5893 18.1158 35.5033 18.3602 35.4397 18.6107C35.2112 18.49 34.9721 18.39 34.7256 18.3123Z" stroke="#212529" stroke-width="2"/>
</g>
<defs>
<clipPath id="clip0_834_1969">
<rect width="64" height="64" rx="32" fill="white"/>
</clipPath>
</defs>
</svg>
