<svg width="132" height="60" viewBox="0 0 132 60" fill="none" xmlns="http://www.w3.org/2000/svg">
<path d="M47.3 29.2999C47.3 31.4999 45.8 32.7 43.3 32.7H38.5V21.7H46.5V23.7999H40.8V25.7999H43.5C46 25.7999 47.3 27 47.3 29.2V29.2999ZM45 29.2999C45 28.2999 44.5 28 43.4 28H40.8V30.6H43.3C44.4 30.6 45 30.1 45 29.2M54.2 32.7H51.5L53.7 28.9L49.5 21.7H52.3L55 26.5L57.7 21.7H60.5L54.2 32.7ZM71.5 30.6V34.9H69.2V32.7H61.7V35H59.4V30.7H61L61.6 29.2L62.8 21.7999H70V30.7H71.5V30.6ZM63.5 30.6H67.6V23.7999H64.6L63.7 29.2999C63.7 29.7999 63.5 30.2 63.4 30.6M77.3 32.7H74.6L76.8 28.9L72.6 21.7H75.4L78.1 26.5L80.8 21.7H83.6L77.3 32.7ZM101.2 30.6V34.9H98.8V32.7H84.7V21.7H87.1V30.6H90.8V21.7H93.3V30.6H97V21.7H99.4V30.6H101.2ZM105.7 23.7999V26.1H110.7V28.1H105.7V30.6H111.1V32.7H103.4V21.7H111.1V23.7999H105.7ZM115.6 23.7999V26.1H120.6V28.1H115.6V30.6H121V32.7H113.3V21.7H121V23.7999H115.6ZM41.8 43.7H41.3V39.7H39V43.7H38.5V39.2999H41.8V43.7ZM44.4 39.7999V41.2H46.1V41.7H44.4V43.2H46.2V43.7H44V39.2999H46.2V39.7999H44.4ZM51.7 39.2999V43.7H51.2V41.7H49V43.7H48.5V39.2999H49V41.2H51.3V39.2999H51.8H51.7ZM52.8 41.5C52.7881 41.1977 52.8449 40.8966 52.9661 40.6195C53.0874 40.3424 53.2699 40.0963 53.5 39.9C53.7132 39.6983 53.9646 39.5413 54.2394 39.4383C54.5141 39.3352 54.8068 39.2882 55.1 39.2999C55.6 39.2999 56.1 39.4 56.4 39.7C56.8 39.9 57.1 40.3 57.2 40.7H56.6C56.5 40.4 56.3 40.2 56 40L55 39.7999C54.6 39.7999 54.2 40 53.9 40.2999C53.5825 40.6186 53.4042 41.0501 53.4042 41.5C53.4042 41.9498 53.5825 42.3813 53.9 42.7C54.2 43 54.6 43.2 55.1 43.2C55.4 43.2 55.7 43.2 56.1 43L56.6 42.2999H57.2C57.1 42.6999 56.8 43.0999 56.4 43.2999C56 43.5999 55.6 43.7 55.1 43.7C54.5094 43.7128 53.9365 43.498 53.5 43.0999C53.2803 42.8952 53.1048 42.6476 52.9844 42.3724C52.864 42.0972 52.8013 41.8003 52.8 41.5ZM61.6 39.2999V43.7H61.1V40L59 43.7H58.4V39.2999H58.9V43L61.1 39.2999H61.7H61.6ZM67.1 41.5C67.1 41.9351 66.971 42.3604 66.7292 42.7222C66.4875 43.084 66.1439 43.366 65.7419 43.5325C65.3399 43.699 64.8976 43.7426 64.4708 43.6577C64.044 43.5728 63.652 43.3633 63.3444 43.0556C63.0367 42.7479 62.8272 42.3559 62.7423 41.9291C62.6574 41.5024 62.701 41.06 62.8675 40.658C63.034 40.2561 63.316 39.9125 63.6777 39.6707C64.0395 39.429 64.4649 39.2999 64.9 39.2999C65.4835 39.2999 66.0431 39.5317 66.4556 39.9443C66.8682 40.3569 67.1 40.9165 67.1 41.5ZM63.2 41.5C63.2108 41.8646 63.3387 42.2161 63.5647 42.5025C63.7906 42.7889 64.1028 42.995 64.4549 43.0904C64.807 43.1857 65.1805 43.1653 65.5201 43.032C65.8597 42.8988 66.1475 42.6598 66.3409 42.3505C66.5342 42.0411 66.6229 41.6778 66.5938 41.3141C66.5648 40.9504 66.4195 40.6058 66.1795 40.331C65.9395 40.0563 65.6174 39.866 65.261 39.7884C64.9045 39.7108 64.5325 39.7499 64.2 39.9C63.8939 40.0381 63.6356 40.2637 63.4577 40.5485C63.2797 40.8332 63.19 41.1643 63.2 41.5ZM71.5 39.2999V43.7H71V41.7H68.7V43.7H68.2V39.2999H68.7V41.2H71V39.2999H71.5ZM77 39.2999V43.7H76.5V41.7H74.2V43.7H73.7V39.2999H74.2V41.2H76.5V39.2999H77ZM82.5 42.4C82.5 43.2 82 43.7 81 43.7H79.2V39.2999H79.7V41.0999H81C82 41.0999 82.5 41.6 82.5 42.4ZM81.9 42.4C81.9 41.9 81.7 41.5 80.9 41.5H79.7V43.2H80.9C81.6 43.2 81.9 42.9 81.9 42.4ZM83.6 43.7H83.1V39.2999H83.6V43.7ZM86.9 39.7V43.7H86.4V40.2999L84.2 43.7H83.6V39.7H84.1V43L86.3 39.5999H86.9V39.7ZM84.3 38.2999V38.2H84.7C84.685 38.2734 84.6867 38.3494 84.705 38.4221C84.7233 38.4948 84.7577 38.5625 84.8058 38.6201C84.8538 38.6778 84.9141 38.7238 84.9824 38.755C85.0506 38.7861 85.125 38.8015 85.2 38.7999C85.2735 38.815 85.3494 38.8133 85.4221 38.7949C85.4949 38.7766 85.5626 38.7422 85.6202 38.6942C85.6778 38.6462 85.7239 38.5858 85.755 38.5176C85.7861 38.4493 85.8015 38.3749 85.8 38.2999V38.2H86.2V38.2999C86.2 38.5652 86.0946 38.8195 85.9071 39.0071C85.7196 39.1946 85.4652 39.2999 85.2 39.2999C85.0815 39.2875 84.9667 39.2517 84.8622 39.1946C84.7576 39.1374 84.6655 39.0601 84.5911 38.9671C84.5167 38.8741 84.4615 38.7672 84.4287 38.6527C84.3959 38.5382 84.3861 38.4183 84.4 38.2999M95.7 41.5L95.6 42.0999C95.6 42.2999 95.4 42.5 95.2 42.7C95.1 42.8 94.9 43 94.7 43L94.1 43.0999H93.7V43.7H93.3V43.0999H92.3L91.8 42.7L91.4 42.0999C91.2897 41.7765 91.2686 41.4294 91.339 41.095C91.4094 40.7606 91.5686 40.4514 91.8 40.2L92.3 39.9L92.9 39.7999H93.3V39.2999H93.7V39.7999H94.7L95.2 40.2L95.6 40.7999L95.7 41.5ZM93.3 42.5999V40.2999H92.9C92.768 40.273 92.632 40.273 92.5 40.2999C92.3434 40.3645 92.2058 40.4677 92.1 40.5999L91.9 41C91.8147 41.2148 91.7883 41.4486 91.8235 41.6771C91.8586 41.9056 91.9541 42.1206 92.1 42.2999L92.5 42.5999H93.3ZM95.3 41.5L95.2 41C95.2 40.7999 95 40.6999 94.9 40.5999C94.8226 40.4796 94.7203 40.3773 94.6 40.2999H93.7V42.5999H94.6L94.9 42.2999L95.2 41.9V41.5H95.3ZM101.2 41.5C101.2 41.9351 101.071 42.3604 100.829 42.7222C100.587 43.084 100.244 43.366 99.8419 43.5325C99.4399 43.699 98.9976 43.7426 98.5708 43.6577C98.144 43.5728 97.752 43.3633 97.4444 43.0556C97.1367 42.7479 96.9272 42.3559 96.8423 41.9291C96.7574 41.5024 96.801 41.06 96.9675 40.658C97.134 40.2561 97.416 39.9125 97.7777 39.6707C98.1395 39.429 98.5649 39.2999 99 39.2999C99.5835 39.2999 100.143 39.5317 100.556 39.9443C100.968 40.3569 101.2 40.9165 101.2 41.5ZM97.3 41.5C97.3 41.9508 97.4791 42.3832 97.7979 42.702C98.1167 43.0208 98.5491 43.2 99 43.2C99.4509 43.2 99.8833 43.0208 100.202 42.702C100.521 42.3832 100.7 41.9508 100.7 41.5C100.7 41.0491 100.521 40.6167 100.202 40.2979C99.8833 39.9791 99.4509 39.7999 99 39.7999C98.5491 39.7999 98.1167 39.9791 97.7979 40.2979C97.4791 40.6167 97.3 41.0491 97.3 41.5ZM105.6 39.2999V43.7H105.1V41.7H102.8V43.7H102.3V39.2999H102.8V41.2H105.1V39.2999H105.6ZM112.2 43.2999V44.7999H111.7V43.7999H108.3V44.7999H107.8V43.2999H108.4L108.7 42.4L109.2 39.2999H111.6V43.2999H112.2ZM108.9 43.2999H111.1V39.7999H109.6L109.2 42.5C109.2 42.7999 109.1 43.0999 108.9 43.2999Z" fill="#131313"/>
<path d="M21.9 0.800049H20V24.5H21.8V0.800049H21.9ZM18.3 26.2001H0V27.9H18.3V26.2001ZM19.7 24.7001L6 11.4L4.7 12.6L18.5 25.8L19.7 24.7001ZM21.9 29.6H20V42.6H21.8V29.6H21.9ZM18.5 28.2001L5 41.4001L6.3 42.6L19.9 29.4L18.6 28.2001H18.5ZM46 1.60005L22.2 24.6L23.5 25.9L47.3 2.90005L46.1 1.60005H46ZM23.5 28.3L22.2 29.5L26 33.1L27.3 31.9L23.5 28.3Z" fill="#0085FF"/>
</svg>
